<?xml version="1.0" encoding="utf-8"?>
<!-- Generator: Adobe Illustrator 16.0.5, SVG Export Plug-In . SVG Version: 6.00 Build 0)  -->
<!DOCTYPE svg PUBLIC "-//W3C//DTD SVG 1.1//EN" "http://www.w3.org/Graphics/SVG/1.1/DTD/svg11.dtd">
<svg version="1.1" id="Layer_1" xmlns="http://www.w3.org/2000/svg" xmlns:xlink="http://www.w3.org/1999/xlink" x="0px" y="0px"
	 width="16px" height="16px" viewBox="0 0 16 16" enable-background="new 0 0 16 16" xml:space="preserve">
<g transform="translate(0 -1036.4)">
	<path fill="none" stroke="#E0E0E0" stroke-width="2" stroke-linecap="square" stroke-opacity="0.3255" d="M2,1038.4v12h12"/>
</g>
<path fill="none" stroke="#E0E0E0" stroke-width="2" stroke-linecap="round" d="M2,8.001c0,0,0-2.891,2.999-2.891
	c3.001,0,2.995,5.779,6,5.779C14.005,10.89,14,8.001,14,8.001"/>
<path opacity="0.6" fill="none" stroke="#E0E0E0" stroke-width="2" stroke-linecap="round" d="M2.002,10.73
	c0.245,0.103,0.513,0.159,0.811,0.159c3.008,0,3.002-2.889,3.002-2.889l0,0c0,0,0-2.891,2.998-2.891c1.502,0,2.25,1.445,2.998,2.89
	c0.601,1.157,1.201,2.314,2.188,2.729"/>
</svg>
