<?xml version="1.0" encoding="utf-8"?>
<!-- Generator: Adobe Illustrator 16.0.5, SVG Export Plug-In . SVG Version: 6.00 Build 0)  -->
<!DOCTYPE svg PUBLIC "-//W3C//DTD SVG 1.1//EN" "http://www.w3.org/Graphics/SVG/1.1/DTD/svg11.dtd">
<svg version="1.1" id="Layer_1" xmlns="http://www.w3.org/2000/svg" xmlns:xlink="http://www.w3.org/1999/xlink" x="0px" y="0px"
	 width="16px" height="16px" viewBox="0 0 16 16" enable-background="new 0 0 16 16" xml:space="preserve">
<g>
	<circle fill="none" stroke="#0096C8" stroke-width="1.25" stroke-miterlimit="10" cx="7.95" cy="8.05" r="6"/>
	<g opacity="0.6">
		
			<line fill="none" stroke="#0096C8" stroke-width="1.25" stroke-linecap="round" stroke-miterlimit="10" x1="11.853" y1="4.165" x2="2.05" y2="13.967"/>
		
			<line fill="none" stroke="#0096C8" stroke-width="1.25" stroke-linecap="round" stroke-miterlimit="10" x1="11.999" y1="4.018" x2="14.05" y2="1.966"/>
		<polyline fill="#0096C8" stroke="#0096C8" stroke-width="1.25" stroke-linecap="round" stroke-miterlimit="10" points="
			14.05,4.165 14.05,1.949 11.833,1.949 		"/>
	</g>
	<g>
		<path fill="#FFFFFF" d="M5.508,8.397c0,0.266,0.037,0.512,0.111,0.738S5.806,9.56,5.957,9.728s0.337,0.301,0.56,0.398
			s0.48,0.148,0.773,0.152l0.416-3.375c0.039-0.305,0.109-0.569,0.211-0.794S8.15,5.7,8.312,5.556s0.351-0.252,0.565-0.322
			c0.214-0.07,0.453-0.105,0.714-0.105c0.313,0,0.594,0.063,0.844,0.188s0.463,0.295,0.639,0.51s0.311,0.469,0.404,0.762
			s0.141,0.605,0.141,0.938c0,0.516-0.084,0.987-0.254,1.415s-0.408,0.795-0.715,1.102s-0.674,0.547-1.1,0.721
			s-0.896,0.263-1.412,0.267L7.911,12.88H6.973l0.229-1.852c-0.422-0.004-0.8-0.072-1.134-0.205s-0.616-0.314-0.847-0.545
			S4.815,9.776,4.694,9.464s-0.182-0.652-0.182-1.02c0-0.391,0.056-0.755,0.167-1.093s0.268-0.646,0.469-0.923
			s0.44-0.522,0.718-0.735s0.584-0.39,0.92-0.53l0.217,0.404c0.02,0.039,0.028,0.08,0.026,0.123S7.017,5.774,7,5.813
			s-0.041,0.074-0.07,0.105S6.872,5.972,6.844,5.983c-0.207,0.113-0.394,0.252-0.56,0.416S5.978,6.748,5.863,6.953
			S5.66,7.383,5.599,7.627S5.508,8.128,5.508,8.397z M8.233,10.278c0.383-0.004,0.723-0.073,1.019-0.208
			c0.297-0.135,0.547-0.32,0.75-0.557s0.357-0.519,0.463-0.847s0.158-0.689,0.158-1.084c0-0.25-0.029-0.479-0.09-0.688
			s-0.143-0.389-0.244-0.539s-0.221-0.268-0.357-0.352S9.65,5.878,9.498,5.878c-0.23,0-0.418,0.08-0.565,0.24
			C8.787,6.278,8.692,6.54,8.649,6.903L8.233,10.278z"/>
	</g>
</g>
</svg>
