<?xml version="1.0" encoding="utf-8"?>
<!-- Generator: Adobe Illustrator 16.0.5, SVG Export Plug-In . SVG Version: 6.00 Build 0)  -->
<!DOCTYPE svg PUBLIC "-//W3C//DTD SVG 1.1//EN" "http://www.w3.org/Graphics/SVG/1.1/DTD/svg11.dtd">
<svg version="1.1" id="Layer_1" xmlns="http://www.w3.org/2000/svg" xmlns:xlink="http://www.w3.org/1999/xlink" x="0px" y="0px"
	 width="16px" height="16px" viewBox="0 808.5 16 16" enable-background="new 0 808.5 16 16" xml:space="preserve">
<g transform="translate(-4,-3)">
	<path fill="#C9DAE1" d="M18.517,818.782h0.546v1.248h-0.546V818.782z M17.441,820.396h0.546v-1.979h-0.546V820.396z
		 M16.383,821.419h0.546v-4.025h-0.546V821.419L16.383,821.419z M15.377,822.209h0.546v-5.569h-0.546V822.209L15.377,822.209z
		 M14.301,820.85h0.546v-2.887h-0.546V820.85z M13.208,823.033h0.546v-7.377h-0.548v7.377H13.208z M12.131,824.091h0.546v-9.369
		h-0.546V824.091z M11.074,822.645h0.546v-6.477h-0.546V822.645L11.074,822.645z M9.979,820.806h0.546v-2.73H9.979V820.806z
		 M8.921,820.154h0.546v-1.499H8.921v1.502V820.154z M7.864,820.956H8.41v-3.101H7.864V820.956L7.864,820.956z M6.823,822.458h0.546
		v-6.28H6.823V822.458L6.823,822.458z M5.765,821.498h0.546v-4.237H5.765V821.498L5.765,821.498z M4.688,820.396h0.546v-1.979H4.688
		V820.396z"/>
</g>
<path fill="none" stroke="#E0E0E0" stroke-width="0.5" stroke-linecap="square" stroke-opacity="0.3255" d="M0.688,819.906v3.438
	h14.188v-3.438"/>
</svg>
