<?xml version="1.0" encoding="utf-8"?>
<!-- Generator: Adobe Illustrator 16.0.5, SVG Export Plug-In . SVG Version: 6.00 Build 0)  -->
<!DOCTYPE svg PUBLIC "-//W3C//DTD SVG 1.1//EN" "http://www.w3.org/Graphics/SVG/1.1/DTD/svg11.dtd">
<svg version="1.1" id="Layer_1" xmlns="http://www.w3.org/2000/svg" xmlns:xlink="http://www.w3.org/1999/xlink" x="0px" y="0px"
	 width="16px" height="16px" viewBox="0 0 16 16" enable-background="new 0 0 16 16" xml:space="preserve">
<g>
	<path fill="#CFCFCF" d="M0,6.471V0.582h2.763c0.311,0,0.592,0.052,0.844,0.155s0.467,0.244,0.645,0.422s0.314,0.388,0.411,0.63
		c0.096,0.242,0.145,0.503,0.145,0.785c0,0.276-0.052,0.536-0.156,0.778C4.548,3.594,4.406,3.806,4.226,3.989
		C4.045,4.172,3.833,4.314,3.589,4.418C3.344,4.522,3.084,4.574,2.807,4.574H1.504v1.896H0z M1.504,3.529h1.111
		c0.114,0,0.216-0.029,0.308-0.089c0.091-0.059,0.17-0.134,0.237-0.226c0.067-0.091,0.118-0.193,0.152-0.308
		c0.035-0.113,0.052-0.225,0.052-0.333s-0.022-0.219-0.066-0.33c-0.044-0.11-0.104-0.211-0.178-0.3
		C3.044,1.855,2.959,1.783,2.863,1.726c-0.097-0.057-0.197-0.085-0.3-0.085H1.504V3.529z"/>
	<path fill="#CFCFCF" d="M10.822,6.471H9.113L7.864,4.566h-0.85v1.904H5.467V0.582h2.847c0.321,0,0.613,0.052,0.876,0.155
		C9.455,0.841,9.68,0.981,9.867,1.159s0.331,0.388,0.433,0.63s0.151,0.503,0.151,0.785c0,0.4-0.106,0.76-0.321,1.077
		c-0.214,0.319-0.498,0.56-0.854,0.723L10.822,6.471z M7.014,3.529h1.149c0.118,0,0.225-0.029,0.322-0.089
		c0.096-0.059,0.178-0.134,0.248-0.226c0.069-0.091,0.122-0.193,0.159-0.308C8.93,2.794,8.948,2.683,8.948,2.574
		s-0.023-0.219-0.066-0.33c-0.044-0.11-0.107-0.211-0.186-0.3c-0.08-0.089-0.169-0.161-0.27-0.219
		C8.325,1.669,8.218,1.641,8.103,1.641H7.014V3.529z"/>
	<path fill="#CFCFCF" d="M12.666,2.952h2.393v1.141h-2.393v1.252h2.801v1.126h-3.817h-0.486V0.582h4.304V1.7h-2.801V2.952z"/>
	<path fill="#CFCFCF" d="M2.733,15.418c-0.331,0-0.655-0.04-0.97-0.122c-0.316-0.082-0.602-0.198-0.856-0.352
		s-0.463-0.338-0.625-0.556C0.119,14.171,0.025,13.929,0,13.662l1.393-0.17c0.02,0.148,0.074,0.272,0.163,0.374
		s0.196,0.183,0.322,0.244c0.126,0.063,0.265,0.108,0.418,0.138c0.153,0.029,0.304,0.045,0.452,0.045
		c0.341,0,0.605-0.063,0.792-0.187c0.188-0.123,0.282-0.266,0.282-0.429c0-0.144-0.053-0.261-0.159-0.353
		c-0.106-0.091-0.246-0.167-0.419-0.229c-0.172-0.062-0.369-0.116-0.589-0.163s-0.445-0.097-0.677-0.151
		C1.746,12.727,1.52,12.662,1.3,12.589c-0.22-0.074-0.416-0.168-0.589-0.282c-0.173-0.113-0.312-0.254-0.418-0.422
		s-0.159-0.375-0.159-0.622c0-0.355,0.079-0.649,0.237-0.881c0.158-0.233,0.359-0.418,0.604-0.557S1.491,9.59,1.792,9.532
		c0.301-0.057,0.593-0.085,0.874-0.085c0.366,0,0.699,0.039,1,0.116s0.562,0.185,0.782,0.325c0.22,0.139,0.396,0.306,0.529,0.502
		c0.133,0.196,0.215,0.413,0.245,0.649l-1.407,0.171c-0.01-0.015-0.03-0.061-0.06-0.138c-0.029-0.076-0.085-0.156-0.167-0.24
		s-0.199-0.159-0.352-0.227c-0.153-0.065-0.358-0.1-0.615-0.1c-0.267,0-0.487,0.045-0.663,0.134
		c-0.175,0.088-0.263,0.212-0.263,0.369c0,0.144,0.053,0.259,0.159,0.349c0.106,0.088,0.246,0.165,0.418,0.229
		c0.173,0.064,0.369,0.121,0.589,0.17c0.219,0.05,0.445,0.103,0.677,0.159c0.232,0.057,0.458,0.123,0.678,0.2
		c0.22,0.076,0.416,0.174,0.589,0.292c0.172,0.118,0.312,0.265,0.418,0.44c0.106,0.175,0.159,0.388,0.159,0.639
		c0,0.252-0.047,0.493-0.141,0.725c-0.094,0.232-0.246,0.437-0.456,0.614c-0.209,0.178-0.484,0.32-0.822,0.429
		C3.628,15.363,3.217,15.418,2.733,15.418z"/>
	<path fill="#CFCFCF" d="M7.6,11.84h2.393v1.141H7.6v1.252h2.8v1.127H6.583H6.096V9.47h4.303v1.119H7.6V11.84z"/>
	<path fill="#CFCFCF" d="M16,10.581h-1.874v4.778h-1.504v-4.778h-1.866V9.47H16V10.581z"/>
</g>
</svg>
