<?xml version="1.0" encoding="utf-8"?>
<!-- Generator: Adobe Illustrator 16.0.5, SVG Export Plug-In . SVG Version: 6.00 Build 0)  -->
<!DOCTYPE svg PUBLIC "-//W3C//DTD SVG 1.1//EN" "http://www.w3.org/Graphics/SVG/1.1/DTD/svg11.dtd">
<svg version="1.1" id="Layer_1" xmlns="http://www.w3.org/2000/svg" xmlns:xlink="http://www.w3.org/1999/xlink" x="0px" y="0px"
	 width="16px" height="16px" viewBox="0 0 16 16" enable-background="new 0 0 16 16" xml:space="preserve">
<g>
	<g>
		<path fill="#DEDEDE" d="M11.001,0.57c-0.175-0.067-0.38-0.02-0.507,0.123L6.909,4.698H3.163c-0.254,0-0.46,0.206-0.46,0.46v5.664
			l8.595-8.595V1C11.298,0.809,11.18,0.638,11.001,0.57z M10.494,15.308c0.089,0.099,0.214,0.153,0.343,0.153
			c0.056,0,0.111-0.011,0.164-0.03c0.179-0.068,0.297-0.239,0.297-0.431V7.177l-4.265,4.265L10.494,15.308z"/>
	</g>
</g>
<g>
	<g>
		<path fill="#BFBFBF" d="M12.664,2.136l-1.788,1.788l-7.848,7.848C2.23,10.723,1.75,9.418,1.75,8c0-3.446,2.804-6.25,6.25-6.25
			c0.278,0,0.548,0.033,0.815,0.068l0.979-1.093C9.219,0.583,8.62,0.5,8,0.5C3.858,0.5,0.5,3.857,0.5,8s3.358,7.5,7.5,7.5
			c0.618,0,1.215-0.083,1.79-0.224V15.27l-0.967-1.08C8.553,14.226,8.28,14.25,8,14.25c-1.417,0-2.722-0.479-3.772-1.278
			l8.744-8.744C13.771,5.278,14.25,6.583,14.25,8c0,1.953-0.912,3.686-2.32,4.831v1.544c2.139-1.32,3.57-3.676,3.57-6.375
			C15.5,5.622,14.391,3.509,12.664,2.136z"/>
	</g>
</g>
</svg>
