<?xml version="1.0" encoding="utf-8"?>
<!-- Generator: Adobe Illustrator 16.0.5, SVG Export Plug-In . SVG Version: 6.00 Build 0)  -->
<!DOCTYPE svg PUBLIC "-//W3C//DTD SVG 1.1//EN" "http://www.w3.org/Graphics/SVG/1.1/DTD/svg11.dtd">
<svg version="1.1" id="Layer_1" xmlns="http://www.w3.org/2000/svg" xmlns:xlink="http://www.w3.org/1999/xlink" x="0px" y="0px"
	 width="16px" height="16px" viewBox="0 0 16 16" enable-background="new 0 0 16 16" xml:space="preserve">
<g>
	<path fill="#E0E0E0" d="M11.90918,12.54297l-3.36719-2.03418l0.46289,1.87793c0.02441-0.00684,0.0498-0.00684,0.07422-0.01367
		l0.46484,1.88477c-0.02441,0.00684-0.04883,0.00879-0.07324,0.01465l0.4043,1.6377L11.90918,12.54297z"/>
	<g>
		<path fill="#E0E0E0" d="M3.0376,7.02051C2.92432,7.58447,3.01025,8.42334,3.3208,9.13477
			c0.396,0.89746,0.85938,1.50195,1.34619,1.89258C4.17822,10.49316,3.8125,9.83105,3.62793,9.07813
			C3.40723,8.18896,3.47949,7.29736,3.76807,6.4917L3.23291,6.28174C3.15576,6.50342,3.09424,6.74463,3.0376,7.02051z"/>
		<path fill="#E0E0E0" d="M5.49414,11.74023c-0.8335-0.28125-1.80273-0.88281-2.47559-2.41113
			c-0.52686-1.2002-0.58154-2.30859-0.35352-3.271L2.13623,5.85254C1.72021,6.98047,1.62109,8.2417,1.93213,9.49707
			c0.8208,3.33008,4.16992,5.36816,7.49854,4.58398l-0.41895-1.69531C7.75488,12.67676,6.49365,12.41016,5.49414,11.74023z"/>
	</g>
	<path fill="#E0E0E0" d="M9.0791,12.37305c-0.02441,0.00684-0.0498,0.00684-0.07422,0.01367l0.46582,1.88574
		c0.02441-0.00586,0.04883-0.00781,0.07324-0.01465L9.0791,12.37305z"/>
	<polygon fill="#E0E0E0" points="6.12549,0.08936 4.0918,3.45703 7.45801,5.49365 	"/>
	<g>
		<path fill="#E0E0E0" d="M12.96289,8.97754c0.11523-0.56152,0.02832-1.39844-0.28516-2.11182
			c-0.39355-0.89746-0.85742-1.50146-1.34473-1.89355c0.48828,0.53467,0.85449,1.19678,1.03906,1.94971
			c0.2207,0.89111,0.14941,1.7832-0.13867,2.58691l0.53418,0.20898C12.84375,9.49805,12.90723,9.25488,12.96289,8.97754z"/>
		<path fill="#E0E0E0" d="M14.06934,6.50391c-0.82715-3.35156-4.21582-5.39941-7.56592-4.57129l0.41797,1.6958
			c1.27881-0.31738,2.56689-0.04883,3.58447,0.63232c0.83594,0.28027,1.7793,0.76123,2.4502,2.2915
			c0.52832,1.20459,0.59863,2.39258,0.375,3.38818l0.53223,0.20898C14.2793,9.01953,14.37891,7.76025,14.06934,6.50391z"/>
	</g>
	<circle opacity="0.5" fill="#E0E0E0" cx="7.99951" cy="8" r="1.00014"/>
</g>
<g>
</g>
<g>
</g>
<g>
</g>
<g>
</g>
<g>
</g>
<g>
</g>
</svg>
