<?xml version="1.0" encoding="utf-8"?>
<!-- Generator: Adobe Illustrator 16.0.5, SVG Export Plug-In . SVG Version: 6.00 Build 0)  -->
<!DOCTYPE svg PUBLIC "-//W3C//DTD SVG 1.1//EN" "http://www.w3.org/Graphics/SVG/1.1/DTD/svg11.dtd">
<svg version="1.1" id="Layer_1" xmlns="http://www.w3.org/2000/svg" xmlns:xlink="http://www.w3.org/1999/xlink" x="0px" y="0px"
	 width="16px" height="16px" viewBox="0 0 16 16" enable-background="new 0 0 16 16" xml:space="preserve">
<g opacity="0.5">
	<path fill="#BFBFBF" d="M13.812,8c0.001,1.603-0.65,3.057-1.703,4.108l0.952,0.95c1.294-1.294,2.094-3.083,2.094-5.059
		s-0.802-3.765-2.096-5.06l-0.95,0.95C13.163,4.943,13.813,6.399,13.812,8z"/>
	<path fill="#BFBFBF" d="M11.721,8.001c0.001,1.025-0.418,1.954-1.091,2.626l0.657,0.659C12.13,10.444,12.651,9.282,12.651,8
		c-0.002-1.281-0.521-2.444-1.364-3.287l-0.659,0.659C11.303,6.045,11.721,6.976,11.721,8.001z"/>
	<path fill="#BFBFBF" d="M10.381,8c0,0.658-0.268,1.251-0.696,1.683l0.42,0.42C10.644,9.563,10.978,8.82,10.978,8
		s-0.334-1.563-0.873-2.103l-0.421,0.42C10.112,6.75,10.38,7.344,10.381,8z"/>
</g>
<polygon fill="#DEDEDE" stroke="#DEDEDE" stroke-width="0.9211" stroke-linecap="round" stroke-linejoin="round" stroke-miterlimit="10" points="
	8.674,1 4.952,5.158 1,5.158 1,10.842 4.952,10.842 8.674,15 "/>
</svg>
