<?xml version="1.0" encoding="utf-8"?>
<!-- Generator: Adobe Illustrator 16.0.5, SVG Export Plug-In . SVG Version: 6.00 Build 0)  -->
<!DOCTYPE svg PUBLIC "-//W3C//DTD SVG 1.1//EN" "http://www.w3.org/Graphics/SVG/1.1/DTD/svg11.dtd">
<svg version="1.1" id="Layer_1" xmlns="http://www.w3.org/2000/svg" xmlns:xlink="http://www.w3.org/1999/xlink" x="0px" y="0px"
	 width="16px" height="16px" viewBox="0 0 16 16" enable-background="new 0 0 16 16" xml:space="preserve">
<g>
	<path fill="#E0E0E0" d="M4,4"/>
	<g>
		<path fill="none" stroke="#000000" stroke-width="0.8" stroke-miterlimit="10" d="M4,4"/>
	</g>
</g>
<path fill="#E0E0E0" d="M8,8"/>
<path fill="#E0E0E0" d="M12,12"/>
<path fill="#E0E0E0" d="M15,8"/>
<polyline fill="none" stroke="#E0E0E0" stroke-width="0.8" stroke-miterlimit="10" points="4,9.859 4,6.859 2.5,6.859 2.5,9.859 
	2.5,12.859 1,12.859 1,9.859 "/>
<polyline fill="none" stroke="#E0E0E0" stroke-width="0.8" stroke-miterlimit="10" points="4,9.859 4,6.859 2.5,6.859 2.5,9.859 
	2.5,12.859 1,12.859 1,9.859 "/>
<polyline fill="none" stroke="#E0E0E0" stroke-width="0.8" stroke-miterlimit="10" points="7.172,7.078 7.172,3.078 5.672,3.078 
	5.672,7.078 5.672,11.078 "/>
<polyline fill="none" stroke="#E0E0E0" stroke-width="0.8" stroke-miterlimit="10" points="10,10.641 10,6.641 8.5,6.641 
	8.5,10.641 8.5,14.641 7,14.641 7,10.641 "/>
<polyline fill="none" stroke="#E0E0E0" stroke-width="0.8" stroke-miterlimit="10" points="13,7.719 13,3.719 11.5,3.719 
	11.5,7.719 11.5,11.719 10,11.719 10,7.719 "/>
<polyline fill="none" stroke="#E0E0E0" stroke-width="0.8" stroke-miterlimit="10" points="14.781,6.797 14.781,8.797 
	14.781,10.797 13.281,10.797 13.281,8.797 "/>
</svg>
