<?xml version="1.0" encoding="utf-8"?>
<!-- Generator: Adobe Illustrator 16.0.5, SVG Export Plug-In . SVG Version: 6.00 Build 0)  -->
<!DOCTYPE svg PUBLIC "-//W3C//DTD SVG 1.1//EN" "http://www.w3.org/Graphics/SVG/1.1/DTD/svg11.dtd">
<svg version="1.1" id="Layer_1" xmlns="http://www.w3.org/2000/svg" xmlns:xlink="http://www.w3.org/1999/xlink" x="0px" y="0px"
	 width="16px" height="16px" viewBox="0 0 16 16" enable-background="new 0 0 16 16" xml:space="preserve">
<g>
	<path fill="#00C896" d="M5.424,3.191C5.123,3.324,4.857,3.503,4.626,3.727C4.395,3.951,4.209,4.214,4.069,4.515
		s-0.21,0.626-0.21,0.977h1.491l0.63,2.52H3.859v7.161h-2.52V8.011V5.512V5.491c0.014-0.672,0.147-1.313,0.399-1.922
		s0.616-1.151,1.092-1.628c0.476-0.476,1.021-0.84,1.638-1.092S5.729,0.472,6.4,0.472v2.521C6.05,2.992,5.725,3.059,5.424,3.191z"/>
	<path fill="#00C896" d="M6.82,15.172v-14.7h2.52v14.7H6.82z"/>
	<path fill="#00C896" d="M15.828,15.172H13.52c-0.477,0-0.925-0.091-1.345-0.273c-0.42-0.182-0.784-0.43-1.092-0.745
		s-0.554-0.683-0.735-1.103s-0.273-0.868-0.273-1.344V2.551l2.521-0.63v4.011h1.47l0.631,2.521h-2.101v3.255
		c0,0.266,0.091,0.49,0.272,0.672c0.183,0.182,0.399,0.273,0.652,0.273h1.68L15.828,15.172z"/>
</g>
</svg>
