<?xml version="1.0" encoding="utf-8"?>
<!-- Generator: Adobe Illustrator 16.0.5, SVG Export Plug-In . SVG Version: 6.00 Build 0)  -->
<!DOCTYPE svg PUBLIC "-//W3C//DTD SVG 1.1//EN" "http://www.w3.org/Graphics/SVG/1.1/DTD/svg11.dtd">
<svg version="1.1" id="Layer_1" xmlns="http://www.w3.org/2000/svg" xmlns:xlink="http://www.w3.org/1999/xlink" x="0px" y="0px"
	 width="16px" height="16px" viewBox="0 0 16 16" enable-background="new 0 0 16 16" xml:space="preserve">
<g>
	<g>
		<path fill="#0099FF" d="M13.104,10.017l0.538-0.538l-0.445-0.771c-0.55-0.953-1.45-2.512-2-3.464L9,1.438
			c-0.55-0.953-1.449-0.953-2,0L5.359,4.282l3.232,5.586c0.256,0.438,0.522,0.795,0.795,1.076c0.271,0.283,0.555,0.504,0.854,0.66
			c0.246,0.129,0.516,0.162,0.809,0.098s0.596-0.225,0.912-0.482L13.104,10.017z M15.393,12.511l-0.805-1.395l-0.533,0.535
			l-1.633,1.633c-0.09,0.088-0.188,0.184-0.297,0.281c-0.109,0.1-0.225,0.199-0.342,0.299c-0.119,0.078-0.244,0.154-0.379,0.229
			c-0.092,0.052-0.193,0.101-0.293,0.15h3.281C15.492,14.243,15.942,13.464,15.393,12.511z M7.046,12.63L3.79,7
			C3.432,7.619,3.076,8.236,2.805,8.706l-2.198,3.806c-0.55,0.952-0.1,1.731,1,1.731h6.917c-0.179-0.099-0.354-0.223-0.528-0.381
			C7.669,13.565,7.353,13.155,7.046,12.63z"/>
	</g>
	<g>
		
			<path fill="none" stroke="#0099FF" stroke-width="0.25" stroke-linecap="round" stroke-linejoin="round" stroke-miterlimit="10" d="
			M13.104,10.017l0.538-0.538l-0.445-0.771c-0.55-0.953-1.45-2.512-2-3.464L9,1.438c-0.55-0.953-1.449-0.953-2,0L5.359,4.282
			l3.232,5.586c0.256,0.438,0.522,0.795,0.795,1.076c0.271,0.283,0.555,0.504,0.854,0.66c0.246,0.129,0.516,0.162,0.809,0.098
			s0.596-0.225,0.912-0.482L13.104,10.017z M15.393,12.511l-0.805-1.395l-0.533,0.535l-1.633,1.633
			c-0.09,0.088-0.188,0.184-0.297,0.281c-0.109,0.1-0.225,0.199-0.342,0.299c-0.119,0.078-0.244,0.154-0.379,0.229
			c-0.092,0.052-0.193,0.101-0.293,0.15h3.281C15.492,14.243,15.942,13.464,15.393,12.511z M7.046,12.63L3.79,7
			C3.432,7.619,3.076,8.236,2.805,8.706l-2.198,3.806c-0.55,0.952-0.1,1.731,1,1.731h6.917c-0.179-0.099-0.354-0.223-0.528-0.381
			C7.669,13.565,7.353,13.155,7.046,12.63z"/>
	</g>
</g>
<g>
	<g>
		<path fill="#0059A7" d="M13.104,10.888l0.538-0.538l-0.445-0.772c-0.55-0.953-1.45-2.511-2-3.464L9,2.309
			c-0.55-0.953-1.449-0.953-2,0L5.359,5.152l3.232,5.586c0.256,0.438,0.522,0.795,0.795,1.076c0.271,0.283,0.555,0.504,0.854,0.661
			c0.246,0.129,0.516,0.161,0.809,0.097s0.596-0.225,0.912-0.482L13.104,10.888z M15.393,13.382l-0.805-1.395l-0.533,0.534
			l-1.633,1.633c-0.09,0.089-0.188,0.184-0.297,0.281c-0.109,0.101-0.225,0.199-0.342,0.299c-0.119,0.078-0.244,0.154-0.379,0.229
			c-0.093,0.052-0.194,0.102-0.295,0.151h3.283C15.492,15.114,15.942,14.335,15.393,13.382z M7.046,13.501L3.79,7.871
			C3.432,8.49,3.076,9.107,2.805,9.577l-2.198,3.805c-0.55,0.953-0.1,1.732,1,1.732h6.918c-0.179-0.099-0.355-0.223-0.529-0.381
			C7.669,14.437,7.353,14.026,7.046,13.501z"/>
	</g>
	<g>
		
			<path fill="none" stroke="#0078E0" stroke-width="0.25" stroke-linecap="round" stroke-linejoin="round" stroke-miterlimit="10" d="
			M13.104,10.888l0.538-0.538l-0.445-0.772c-0.55-0.953-1.45-2.511-2-3.464L9,2.309c-0.55-0.953-1.449-0.953-2,0L5.359,5.152
			l3.232,5.586c0.256,0.438,0.522,0.795,0.795,1.076c0.271,0.283,0.555,0.504,0.854,0.661c0.246,0.129,0.516,0.161,0.809,0.097
			s0.596-0.225,0.912-0.482L13.104,10.888z M15.393,13.382l-0.805-1.395l-0.533,0.534l-1.633,1.633
			c-0.09,0.089-0.188,0.184-0.297,0.281c-0.109,0.101-0.225,0.199-0.342,0.299c-0.119,0.078-0.244,0.154-0.379,0.229
			c-0.093,0.052-0.194,0.102-0.295,0.151h3.283C15.492,15.114,15.942,14.335,15.393,13.382z M7.046,13.501L3.79,7.871
			C3.432,8.49,3.076,9.107,2.805,9.577l-2.198,3.805c-0.55,0.953-0.1,1.732,1,1.732h6.918c-0.179-0.099-0.355-0.223-0.529-0.381
			C7.669,14.437,7.353,14.026,7.046,13.501z"/>
	</g>
</g>
<g>
	<g>
		<path fill="#0059A7" d="M-4.646,10.399l0.538-0.538l-0.445-0.772c-0.55-0.953-1.45-2.511-2-3.464L-8.75,1.82
			c-0.55-0.953-1.449-0.953-2,0l-1.641,2.844l3.232,5.586c0.256,0.438,0.522,0.795,0.795,1.076c0.271,0.283,0.555,0.504,0.854,0.661
			c0.246,0.129,0.516,0.161,0.809,0.097s0.596-0.225,0.912-0.482L-4.646,10.399z M-2.357,12.894l-0.805-1.395l-0.533,0.534
			l-1.633,1.633c-0.09,0.089-0.188,0.184-0.297,0.281c-0.109,0.101-0.225,0.199-0.342,0.299c-0.119,0.078-0.244,0.154-0.379,0.229
			c-0.093,0.052-0.194,0.102-0.295,0.151h3.283C-2.258,14.626-1.808,13.847-2.357,12.894z M-10.704,13.013l-3.257-5.63
			c-0.357,0.62-0.714,1.237-0.985,1.707l-2.198,3.805c-0.55,0.953-0.1,1.732,1,1.732h6.918c-0.179-0.099-0.355-0.223-0.529-0.381
			C-10.081,13.948-10.397,13.538-10.704,13.013z"/>
	</g>
	<g>
		
			<path fill="none" stroke="#47D4FF" stroke-width="0.25" stroke-linecap="round" stroke-linejoin="round" stroke-miterlimit="10" d="
			M-4.646,10.399l0.538-0.538l-0.445-0.772c-0.55-0.953-1.45-2.511-2-3.464L-8.75,1.82c-0.55-0.953-1.449-0.953-2,0l-1.641,2.844
			l3.232,5.586c0.256,0.438,0.522,0.795,0.795,1.076c0.271,0.283,0.555,0.504,0.854,0.661c0.246,0.129,0.516,0.161,0.809,0.097
			s0.596-0.225,0.912-0.482L-4.646,10.399z M-2.357,12.894l-0.805-1.395l-0.533,0.534l-1.633,1.633
			c-0.09,0.089-0.188,0.184-0.297,0.281c-0.109,0.101-0.225,0.199-0.342,0.299c-0.119,0.078-0.244,0.154-0.379,0.229
			c-0.093,0.052-0.194,0.102-0.295,0.151h3.283C-2.258,14.626-1.808,13.847-2.357,12.894z M-10.704,13.013l-3.257-5.63
			c-0.357,0.62-0.714,1.237-0.985,1.707l-2.198,3.805c-0.55,0.953-0.1,1.732,1,1.732h6.918c-0.179-0.099-0.355-0.223-0.529-0.381
			C-10.081,13.948-10.397,13.538-10.704,13.013z"/>
	</g>
</g>
<g opacity="0.1">
	<path fill="#FFFFFF" d="M-12.131,5.112l2.973,5.138c0.256,0.438,0.521,0.795,0.795,1.076c0.271,0.283,0.555,0.504,0.854,0.661
		c0.246,0.129,0.516,0.161,0.809,0.097s0.596-0.225,0.912-0.482l1.143-1.202l0.594-0.594l0.951,1.633l-0.594,0.595l-1.633,1.633
		c-0.09,0.089-0.188,0.184-0.297,0.281c-0.109,0.101-0.225,0.199-0.342,0.299c-0.119,0.078-0.244,0.154-0.379,0.229
		c-0.133,0.074-0.275,0.146-0.422,0.217c-0.309,0.128-0.625,0.203-0.951,0.222c-0.326,0.021-0.668-0.009-1.025-0.089
		c-0.346-0.089-0.682-0.281-1.01-0.579c-0.326-0.297-0.643-0.707-0.949-1.232l-3-5.186L-12.131,5.112z"/>
</g>
<g>
	<g>
		<path fill="#0099FF" d="M20.953,8.774l-2.127,3.683c-0.55,0.953-0.1,1.732,1,1.732h6.97c-0.425-0.148-0.843-0.416-1.255-0.827
			L20.953,8.774z M30.917,7.789c-0.505-0.874-1.098-1.9-1.502-2.601l-2.196-3.805c-0.55-0.953-1.449-0.953-2,0l-2.195,3.805
			c-0.033,0.059-0.072,0.125-0.109,0.188l4.508,4.507c0.271,0.272,0.526,0.384,0.769,0.339c0.243-0.048,0.564-0.273,0.971-0.679
			L30.917,7.789z M33.611,12.457l-1.059-1.834l-1.967,1.967c-0.856,0.856-1.635,1.376-2.344,1.6h4.369
			C33.711,14.189,34.161,13.41,33.611,12.457z"/>
	</g>
	<g>
		
			<path fill="none" stroke="#0099FF" stroke-width="0.25" stroke-linecap="round" stroke-linejoin="round" stroke-miterlimit="10" d="
			M20.953,8.774l-2.127,3.683c-0.55,0.953-0.1,1.732,1,1.732h6.97c-0.425-0.148-0.843-0.416-1.255-0.827L20.953,8.774z
			 M30.917,7.789c-0.505-0.874-1.098-1.9-1.502-2.601l-2.196-3.805c-0.55-0.953-1.449-0.953-2,0l-2.195,3.805
			c-0.033,0.059-0.072,0.125-0.109,0.188l4.508,4.507c0.271,0.272,0.526,0.384,0.769,0.339c0.243-0.048,0.564-0.273,0.971-0.679
			L30.917,7.789z M33.611,12.457l-1.059-1.834l-1.967,1.967c-0.856,0.856-1.635,1.376-2.344,1.6h4.369
			C33.711,14.189,34.161,13.41,33.611,12.457z"/>
	</g>
</g>
<g>
	<g>
		<path fill="#0059A7" d="M30.917,8.727c-0.505-0.874-1.098-1.9-1.502-2.601l-2.196-3.805c-0.55-0.953-1.449-0.953-2,0l-2.195,3.805
			c-0.033,0.059-0.072,0.125-0.109,0.188l4.508,4.507c0.271,0.272,0.526,0.384,0.769,0.339c0.243-0.048,0.564-0.273,0.971-0.679
			L30.917,8.727z M33.611,13.395l-1.059-1.834l-1.967,1.967c-0.856,0.856-1.635,1.376-2.344,1.6h4.369
			C33.711,15.127,34.161,14.348,33.611,13.395z M20.953,9.712l-2.127,3.683c-0.55,0.953-0.1,1.732,1,1.732h6.97
			c-0.425-0.148-0.843-0.416-1.255-0.827L20.953,9.712z"/>
	</g>
	<g>
		
			<path fill="none" stroke="#0078E0" stroke-width="0.25" stroke-linecap="round" stroke-linejoin="round" stroke-miterlimit="10" d="
			M30.917,8.727c-0.505-0.874-1.098-1.9-1.502-2.601l-2.196-3.805c-0.55-0.953-1.449-0.953-2,0l-2.195,3.805
			c-0.033,0.059-0.072,0.125-0.109,0.188l4.508,4.507c0.271,0.272,0.526,0.384,0.769,0.339c0.243-0.048,0.564-0.273,0.971-0.679
			L30.917,8.727z M33.611,13.395l-1.059-1.834l-1.967,1.967c-0.856,0.856-1.635,1.376-2.344,1.6h4.369
			C33.711,15.127,34.161,14.348,33.611,13.395z M20.953,9.712l-2.127,3.683c-0.55,0.953-0.1,1.732,1,1.732h6.97
			c-0.425-0.148-0.843-0.416-1.255-0.827L20.953,9.712z"/>
	</g>
</g>
</svg>
