<?xml version="1.0" encoding="utf-8"?>
<!-- Generator: Adobe Illustrator 16.0.5, SVG Export Plug-In . SVG Version: 6.00 Build 0)  -->
<!DOCTYPE svg PUBLIC "-//W3C//DTD SVG 1.1//EN" "http://www.w3.org/Graphics/SVG/1.1/DTD/svg11.dtd">
<svg version="1.1" id="Layer_1" xmlns="http://www.w3.org/2000/svg" xmlns:xlink="http://www.w3.org/1999/xlink" x="0px" y="0px"
	 width="16px" height="16px" viewBox="0 0 16 16" enable-background="new 0 0 16 16" xml:space="preserve">
<line fill="none" stroke="#E0E0E0" stroke-width="2" stroke-linecap="round" stroke-miterlimit="10" x1="3.051" y1="3.051" x2="12.949" y2="12.949"/>
<g>
	<path fill="#A6A6A6" d="M11,2.5c0.829,0,1.5,0.672,1.5,1.5S11.829,5.5,11,5.5S9.5,4.828,9.5,4S10.171,2.5,11,2.5 M11,1.5
		C9.621,1.5,8.5,2.622,8.5,4S9.621,6.5,11,6.5s2.5-1.122,2.5-2.5S12.379,1.5,11,1.5L11,1.5z"/>
</g>
<g>
	<path fill="#A6A6A6" d="M5,10.5c0.829,0,1.5,0.672,1.5,1.5S5.829,13.5,5,13.5S3.5,12.828,3.5,12S4.171,10.5,5,10.5 M5,9.5
		c-1.378,0-2.5,1.121-2.5,2.5s1.122,2.5,2.5,2.5s2.5-1.121,2.5-2.5S6.378,9.5,5,9.5L5,9.5z"/>
</g>
</svg>
