<?xml version="1.0" encoding="utf-8"?>
<!-- Generator: Adobe Illustrator 16.0.5, SVG Export Plug-In . SVG Version: 6.00 Build 0)  -->
<!DOCTYPE svg PUBLIC "-//W3C//DTD SVG 1.1//EN" "http://www.w3.org/Graphics/SVG/1.1/DTD/svg11.dtd">
<svg version="1.1" id="Layer_1" xmlns="http://www.w3.org/2000/svg" xmlns:xlink="http://www.w3.org/1999/xlink" x="0px" y="0px"
	 width="16px" height="16px" viewBox="0 0 16 16" enable-background="new 0 0 16 16" xml:space="preserve">
<g>
	<g opacity="0.6">
		
			<line fill="none" stroke="#0096C8" stroke-width="1.25" stroke-linecap="round" stroke-miterlimit="10" x1="11.854" y1="4.165" x2="2.05" y2="13.967"/>
		
			<line fill="none" stroke="#0096C8" stroke-width="1.25" stroke-linecap="round" stroke-miterlimit="10" x1="11.999" y1="4.018" x2="14.05" y2="1.966"/>
		<polyline fill="#0096C8" stroke="#0096C8" stroke-width="1.25" stroke-linecap="round" stroke-miterlimit="10" points="
			14.05,4.165 14.05,1.949 11.833,1.949 		"/>
	</g>
	<g>
		<path fill="#FFFFFF" d="M5.508,8.397c0,0.266,0.037,0.512,0.111,0.738c0.074,0.227,0.187,0.426,0.338,0.594
			s0.337,0.301,0.56,0.397s0.48,0.147,0.773,0.151l0.416-3.375c0.039-0.305,0.109-0.569,0.211-0.794S8.15,5.7,8.312,5.556
			s0.351-0.252,0.565-0.322c0.214-0.07,0.453-0.105,0.714-0.105c0.313,0,0.595,0.063,0.845,0.188s0.463,0.295,0.639,0.51
			c0.176,0.215,0.311,0.469,0.404,0.762c0.092,0.293,0.141,0.605,0.141,0.938c0,0.516-0.084,0.987-0.254,1.415
			c-0.17,0.429-0.408,0.795-0.715,1.103c-0.308,0.308-0.674,0.547-1.101,0.722c-0.426,0.174-0.896,0.262-1.412,0.267L7.911,12.88
			H6.973l0.229-1.853c-0.422-0.004-0.8-0.071-1.134-0.204c-0.334-0.134-0.616-0.314-0.847-0.546
			c-0.231-0.23-0.406-0.502-0.527-0.813c-0.121-0.312-0.182-0.651-0.182-1.02c0-0.391,0.056-0.755,0.167-1.093
			C4.79,7.013,4.947,6.705,5.148,6.428c0.201-0.277,0.44-0.522,0.718-0.735c0.278-0.213,0.584-0.39,0.92-0.53l0.217,0.404
			c0.02,0.039,0.028,0.08,0.026,0.123C7.027,5.733,7.017,5.774,7,5.813S6.959,5.887,6.93,5.918C6.901,5.949,6.872,5.972,6.844,5.983
			C6.637,6.096,6.45,6.235,6.284,6.399S5.978,6.748,5.863,6.953C5.748,7.158,5.66,7.383,5.599,7.627S5.508,8.128,5.508,8.397z
			 M8.233,10.277c0.383-0.004,0.723-0.072,1.019-0.207c0.297-0.135,0.547-0.32,0.75-0.557c0.203-0.238,0.357-0.52,0.463-0.848
			s0.158-0.689,0.158-1.084c0-0.25-0.029-0.479-0.09-0.688s-0.143-0.389-0.244-0.539s-0.221-0.268-0.357-0.352
			C9.796,5.919,9.65,5.878,9.498,5.878c-0.23,0-0.418,0.08-0.564,0.24C8.787,6.278,8.691,6.54,8.648,6.903L8.233,10.277z"/>
	</g>
	<path fill="#0096C8" d="M10.616,14c-0.641,0-1.146-0.285-1.411-0.738c-0.404,0.098-0.821,0.163-1.255,0.163
		c-2.964,0-5.375-2.411-5.375-5.375S4.986,2.675,7.95,2.675s5.375,2.411,5.375,5.375c0,0.385-0.044,0.759-0.122,1.121
		C13.691,9.425,14,9.947,14,10.617v0.12c0.367-0.822,0.575-1.73,0.575-2.688c0-3.653-2.972-6.625-6.625-6.625
		c-3.653,0-6.625,2.972-6.625,6.625c0,3.653,2.972,6.625,6.625,6.625c1.039,0,2.019-0.247,2.895-0.675H10.616z"/>
	<path fill="#80FF00" d="M13.159,13C13.131,13,13,13.137,13,13.166v1.217C13,14.738,12.851,15,12.495,15
		C12.138,15,12,14.738,12,14.383v-1.217C12,13.137,11.869,13,11.838,13h-1.222C10.259,13,10,12.853,10,12.496S10.259,12,10.616,12
		h1.222C11.869,12,12,11.873,12,11.844v-1.227C12,10.262,12.147,10,12.505,10C12.86,10,13,10.262,13,10.617v1.227
		C13,11.873,13.131,12,13.159,12h1.225C14.741,12,15,12.149,15,12.506S14.741,13,14.384,13H13.159z"/>
</g>
</svg>
