<?xml version="1.0" encoding="utf-8"?>
<!-- Generator: Adobe Illustrator 16.0.5, SVG Export Plug-In . SVG Version: 6.00 Build 0)  -->
<!DOCTYPE svg PUBLIC "-//W3C//DTD SVG 1.1//EN" "http://www.w3.org/Graphics/SVG/1.1/DTD/svg11.dtd">
<svg version="1.1" id="Layer_1" xmlns="http://www.w3.org/2000/svg" xmlns:xlink="http://www.w3.org/1999/xlink" x="0px" y="0px"
	 width="16px" height="16px" viewBox="0 0 16 16" enable-background="new 0 0 16 16" xml:space="preserve">
<g>
	
		<line fill="none" stroke="#A6A6A6" stroke-width="1.5" stroke-linecap="round" stroke-miterlimit="10" x1="15.188" y1="7.964" x2="12.49" y2="7.964"/>
	
		<line fill="none" stroke="#A6A6A6" stroke-width="1.5" stroke-linecap="round" stroke-miterlimit="10" x1="4.409" y1="9.854" x2="0.813" y2="9.854"/>
	
		<line fill="none" stroke="#A6A6A6" stroke-width="1.5" stroke-linecap="round" stroke-miterlimit="10" x1="4.409" y1="6.076" x2="0.813" y2="6.076"/>
	<g>
		<path fill="#E0E0E0" d="M5.149,4.446c2.726,0.647,6.365,0.023,6.365,3.579c0,3.584-3.75,2.987-6.366,3.607
			C5.148,9.328,5.149,6.875,5.149,4.446z M3.611,2.5c0,3.576,0.043,7.354,0.043,11c4.226-0.216,9.747,0,9.747-5.536
			C13.4,2.5,7.864,2.968,3.611,2.5L3.611,2.5z"/>
	</g>
</g>
<path opacity="0.1" fill="#F5F5F5" d="M5.149,4.446c2.726,0.647,6.365,0.023,6.365,3.58c0,3.584-3.75,2.986-6.366,3.606
	C5.148,9.328,5.149,6.875,5.149,4.446z"/>
</svg>
