<?xml version="1.0" encoding="utf-8"?>
<!-- Generator: Adobe Illustrator 16.0.5, SVG Export Plug-In . SVG Version: 6.00 Build 0)  -->
<!DOCTYPE svg PUBLIC "-//W3C//DTD SVG 1.1//EN" "http://www.w3.org/Graphics/SVG/1.1/DTD/svg11.dtd">
<svg version="1.1" id="Layer_1" xmlns="http://www.w3.org/2000/svg" xmlns:xlink="http://www.w3.org/1999/xlink" x="0px" y="0px"
	 width="16px" height="16px" viewBox="0 0 16 16" enable-background="new 0 0 16 16" xml:space="preserve">
<g>
	
		<line fill="none" stroke="#A6A6A6" stroke-width="1.5" stroke-linecap="round" stroke-miterlimit="10" x1="15.188" y1="7.964" x2="12.49" y2="7.964"/>
	
		<line fill="none" stroke="#A6A6A6" stroke-width="1.5" stroke-linecap="round" stroke-miterlimit="10" x1="4.409" y1="9.854" x2="0.813" y2="9.854"/>
	
		<line fill="none" stroke="#A6A6A6" stroke-width="1.5" stroke-linecap="round" stroke-miterlimit="10" x1="4.409" y1="6.076" x2="0.813" y2="6.076"/>
	<g>
		<path fill="#E0E0E0" d="M5.149,4.446c2.726,0.647,4.768,1.801,6.365,3.579c-1.4,1.668-3.75,2.987-6.366,3.607
			C5.945,9.24,5.945,6.837,5.149,4.446 M2.611,2.5c2.177,3.703,2.177,7.318,0.043,11c4.226-0.216,8.786-2.302,10.747-5.536
			C10.662,4.297,6.864,2.968,2.611,2.5L2.611,2.5z"/>
	</g>
</g>
<path fill="#E0E0E0" d="M3.578,7.928c0-0.24-0.108-5.464-2.344-5.464l0,0c2.177,3.703,2.177,7.318,0.043,11
	C3.513,13.464,3.578,8.168,3.578,7.928z"/>
<path fill="#E0E0E0" d="M7.016,7.936c0-0.189-0.085-4.298-1.844-4.298l0,0c1.712,2.913,1.712,5.757,0.034,8.654
	C6.964,12.291,7.016,8.125,7.016,7.936z"/>
</svg>
