<?xml version="1.0" encoding="utf-8"?>
<!-- Generator: Adobe Illustrator 16.0.5, SVG Export Plug-In . SVG Version: 6.00 Build 0)  -->
<!DOCTYPE svg PUBLIC "-//W3C//DTD SVG 1.1//EN" "http://www.w3.org/Graphics/SVG/1.1/DTD/svg11.dtd">
<svg version="1.1" id="Layer_1" xmlns="http://www.w3.org/2000/svg" xmlns:xlink="http://www.w3.org/1999/xlink" x="0px" y="0px"
	 width="16px" height="16px" viewBox="0 0 16 16" enable-background="new 0 0 16 16" xml:space="preserve">
<g>
	<g opacity="0.5">
		<g>
			<path fill="none" stroke="#FFFFFF" stroke-width="0.2672" stroke-miterlimit="10" d="M0.471,11.534
				c0-0.022,0.004-1.584,0.004-1.584l7.461-0.01l7.379,3.106l-0.014-1.523"/>
			<path fill="none" stroke="#FFFFFF" stroke-width="0.2672" stroke-miterlimit="10" d="M0.838,10.186
				c0-0.031,0.129-1.588,1.052-1.588c0.4,0,5.678,0.26,5.996,0.527c0.319,0.268,5.573,2.605,6.035,2.605
				c0.802,0,1.08-1.556,1.08-1.556"/>
			<path fill="none" stroke="#FFFFFF" stroke-width="0.2672" stroke-miterlimit="10" d="M1.206,8.836c0-0.039,0.253-1.59,2.099-1.59
				c0.801,0,3.894,0.53,4.531,1.063c0.639,0.536,3.767,2.107,4.691,2.107c1.604,0,2.174-1.59,2.174-1.59"/>
			<path fill="none" stroke="#FFFFFF" stroke-width="0.2672" stroke-miterlimit="10" d="M1.573,7.488
				c0-0.047,0.378-1.594,3.146-1.594c2.405,0,3.645,3.207,6.413,3.207c2.405,0,3.268-1.623,3.268-1.623"/>
			<path fill="none" stroke="#FFFFFF" stroke-width="0.2672" stroke-miterlimit="10" d="M1.573,6.139c0-0.047,1.3-1.594,3.146-1.594
				c1.604,0,4.568,3.207,6.413,3.207c1.604,0,3.268-1.623,3.268-1.623"/>
			<path fill="none" stroke="#FFFFFF" stroke-width="0.2672" stroke-miterlimit="10" d="M1.573,4.79
				c0-0.047,2.223-1.594,3.146-1.594c0.802,0,5.491,3.207,6.414,3.207c0.802,0,3.267-1.623,3.267-1.623"/>
			<path fill="none" stroke="#FFFFFF" stroke-width="0.2672" stroke-miterlimit="10" d="M1.573,3.442
				c0-0.047,3.146-1.594,3.146-1.594l6.414,3.207l3.267-1.623"/>
		</g>
	</g>
	<g opacity="0.2">
		<g>
			<path fill="none" stroke="#FFFFFF" stroke-width="0.2672" stroke-miterlimit="10" d="M0.626,12.979
				c0-0.021,0.005-1.584,0.005-1.584l7.46-0.01l7.379,3.107l-0.014-1.523"/>
			<path fill="none" stroke="#FFFFFF" stroke-width="0.2672" stroke-miterlimit="10" d="M0.847,12.17
				c0-0.026,0.08-1.586,0.633-1.586c0.24,0,6.391,0.152,6.582,0.313c0.191,0.161,6.296,2.808,6.573,2.808
				c0.48,0,0.642-1.544,0.642-1.544"/>
			<path fill="none" stroke="#FFFFFF" stroke-width="0.2672" stroke-miterlimit="10" d="M1.067,11.361
				c0-0.031,0.154-1.588,1.262-1.588c0.48,0,5.321,0.314,5.703,0.635c0.383,0.32,5.211,2.506,5.766,2.506
				c0.962,0,1.298-1.563,1.298-1.563"/>
			<path fill="none" stroke="#FFFFFF" stroke-width="0.2672" stroke-miterlimit="10" d="M1.288,10.553
				c0-0.038,0.229-1.591,1.89-1.591c0.721,0.001,4.251,0.477,4.824,0.957c0.574,0.481,4.128,2.206,4.959,2.206
				c1.443,0,1.955-1.583,1.955-1.583"/>
			<path fill="none" stroke="#FFFFFF" stroke-width="0.2672" stroke-miterlimit="10" d="M1.508,9.743
				c0-0.042,0.304-1.592,2.519-1.592c0.961,0,3.182,0.638,3.946,1.279c0.766,0.643,3.043,1.906,4.153,1.906
				c1.923,0,2.61-1.604,2.61-1.604"/>
			<path fill="none" stroke="#FFFFFF" stroke-width="0.2672" stroke-miterlimit="10" d="M1.729,8.934
				c0-0.048,0.378-1.594,3.147-1.594c2.404,0,3.645,3.207,6.413,3.207c2.404,0,3.267-1.623,3.267-1.623"/>
			<path fill="none" stroke="#FFFFFF" stroke-width="0.2672" stroke-miterlimit="10" d="M1.728,8.125
				c0-0.047,0.932-1.594,3.147-1.594c1.924,0,4.199,3.207,6.413,3.207c1.923,0,3.267-1.623,3.267-1.623"/>
			<path fill="none" stroke="#FFFFFF" stroke-width="0.2672" stroke-miterlimit="10" d="M1.729,7.315
				c0-0.048,1.486-1.594,3.147-1.594c1.442,0,4.751,3.207,6.413,3.207c1.442,0,3.267-1.624,3.267-1.624"/>
			<path fill="none" stroke="#FFFFFF" stroke-width="0.2672" stroke-miterlimit="10" d="M1.729,6.506
				c0-0.048,2.039-1.594,3.146-1.594c0.962,0,5.307,3.207,6.413,3.207c0.962,0,3.267-1.623,3.267-1.623"/>
			<path fill="none" stroke="#FFFFFF" stroke-width="0.2672" stroke-miterlimit="10" d="M1.729,5.697
				c0-0.047,2.593-1.594,3.146-1.594c0.481,0,5.859,3.207,6.413,3.207c0.481,0,3.267-1.623,3.267-1.623"/>
			<path fill="none" stroke="#FFFFFF" stroke-width="0.2672" stroke-miterlimit="10" d="M1.729,4.888
				c0-0.048,3.146-1.594,3.146-1.594L11.288,6.5l3.267-1.623"/>
		</g>
	</g>
	<path fill="none" stroke="#FFBF00" stroke-linecap="round" stroke-linejoin="round" stroke-miterlimit="10" d="M1.573,7.488
		c0-0.047,0.378-1.594,3.146-1.594c2.405,0,3.645,3.207,6.413,3.207c2.405,0,3.268-1.623,3.268-1.623"/>
</g>
</svg>
