<?xml version="1.0" encoding="utf-8"?>
<!-- Generator: Adobe Illustrator 16.0.5, SVG Export Plug-In . SVG Version: 6.00 Build 0)  -->
<!DOCTYPE svg PUBLIC "-//W3C//DTD SVG 1.1//EN" "http://www.w3.org/Graphics/SVG/1.1/DTD/svg11.dtd">
<svg version="1.1" id="Layer_1" xmlns="http://www.w3.org/2000/svg" xmlns:xlink="http://www.w3.org/1999/xlink" x="0px" y="0px"
	 width="16px" height="16px" viewBox="0 0 16 16" enable-background="new 0 0 16 16" xml:space="preserve">
<path fill="#A5EFAC" d="M12.992,6C11.893,6,11,6.896,11,8c0,1.104,0.893,2,1.992,2c1.007,0,1.855-0.754,1.979-1.756
	c0.04-0.161,0.039-0.33-0.002-0.49C14.846,6.753,13.997,6.001,12.992,6L12.992,6z M12.992,9C12.445,9,12,8.551,12,8s0.445-1,0.992-1
	c0.499,0,0.923,0.377,0.984,0.876C13.98,7.918,13.989,7.96,14,8.002c-0.01,0.04-0.018,0.081-0.021,0.121
	C13.917,8.623,13.493,9,12.992,9z"/>
<g>
	<path fill="none" d="M10.879,10.768c-0.02,0.021-0.031,0.043-0.051,0.063l1.414,1.414c0.234-0.235,0.43-0.495,0.617-0.758
		C12.114,11.458,11.434,11.193,10.879,10.768z"/>
	<path fill="#A5EFAC" d="M10.878,5.233c0.556-0.427,1.236-0.691,1.981-0.72c-0.188-0.262-0.383-0.521-0.617-0.756
		c-2.344-2.343-6.142-2.343-8.485,0c-2.343,2.343-2.343,6.144,0,8.485l1.414-1.414c-1.562-1.563-1.562-4.095,0-5.657
		s4.095-1.562,5.657,0C10.848,5.191,10.859,5.214,10.878,5.233z"/>
</g>
<line fill="none" x1="12" y1="8" x2="14" y2="8"/>
<g>
	<g>
		<path opacity="0.7" fill="#A5EFAC" d="M9.271,11.777c-0.08,0.024-0.154,0.064-0.235,0.086l0.272,1.975
			c0.287-0.064,0.562-0.156,0.836-0.263L9.271,11.777z"/>
		<path opacity="0.5" fill="#A5EFAC" d="M8.321,13.986l-0.277-2c-0.083,0-0.165-0.004-0.248-0.008l-0.354,1.979
			C7.737,13.984,8.03,14.002,8.321,13.986z"/>
		<path fill="#A5EFAC" d="M11.249,10.303c-0.046,0.069-0.097,0.139-0.147,0.202l1.398,1.457c0.193-0.22,0.363-0.462,0.523-0.712
			L11.249,10.303z"/>
		<path opacity="0.8" fill="#A5EFAC" d="M10.389,11.208c-0.068,0.052-0.146,0.087-0.217,0.133l0.871,1.8
			c0.254-0.149,0.498-0.31,0.729-0.496L10.389,11.208z"/>
		<path fill="#A5EFAC" d="M13.143,11.091c0.017-0.028,0.028-0.059,0.045-0.087L13.143,11.091z"/>
	</g>
	
		<rect x="-1" y="-0.999" transform="matrix(-0.8997 0.4364 -0.4364 -0.8997 18.6891 11.7075)" fill="none" width="17.999" height="17.999"/>
</g>
</svg>
