<?xml version="1.0" encoding="utf-8"?>
<!-- Generator: Adobe Illustrator 16.0.5, SVG Export Plug-In . SVG Version: 6.00 Build 0)  -->
<!DOCTYPE svg PUBLIC "-//W3C//DTD SVG 1.1//EN" "http://www.w3.org/Graphics/SVG/1.1/DTD/svg11.dtd">
<svg version="1.1" id="Layer_1" xmlns="http://www.w3.org/2000/svg" xmlns:xlink="http://www.w3.org/1999/xlink" x="0px" y="0px"
	 width="16px" height="16px" viewBox="0 0 16 16" enable-background="new 0 0 16 16" xml:space="preserve">
<polyline fill="none" stroke="#E0E0E0" stroke-width="0.75" stroke-linecap="round" stroke-linejoin="bevel" stroke-miterlimit="10" points="
	1.516,11.042 5.188,2.838 6.997,7.478 11.924,7.501 14.449,10.813 "/>
<g>
	<path fill="#42AEFF" d="M5.713,2.375v0.928H4.785V2.375H5.713 M6.313,1.774H4.185v2.128h2.128V1.774L6.313,1.774z"/>
</g>
<g>
	<path fill="#42AEFF" d="M1.98,10.578v0.93H1.052v-0.93H1.98 M2.58,9.979H0.452v2.129H2.58V9.979L2.58,9.979z"/>
</g>
<g>
	<path fill="#42AEFF" d="M7.454,7.015v0.928H6.526V7.015H7.454 M8.054,6.415H5.926v2.128h2.128V6.415L8.054,6.415z"/>
</g>
<g>
	<path fill="#42AEFF" d="M12.371,7.015v0.928h-0.93V7.015H12.371 M12.971,6.415h-2.129v2.128h2.129V6.415L12.971,6.415z"/>
</g>
<g>
	<path fill="#42AEFF" d="M14.787,10.328v0.93h-0.93v-0.93H14.787 M15.387,9.729h-2.129v2.129h2.129V9.729L15.387,9.729z"/>
</g>
</svg>
