<?xml version="1.0" encoding="utf-8"?>
<!-- Generator: Adobe Illustrator 16.0.5, SVG Export Plug-In . SVG Version: 6.00 Build 0)  -->
<!DOCTYPE svg PUBLIC "-//W3C//DTD SVG 1.1//EN" "http://www.w3.org/Graphics/SVG/1.1/DTD/svg11.dtd">
<svg version="1.1" id="Layer_1" xmlns="http://www.w3.org/2000/svg" xmlns:xlink="http://www.w3.org/1999/xlink" x="0px" y="0px"
	 width="16px" height="16px" viewBox="0 0 16 16" enable-background="new 0 0 16 16" xml:space="preserve">
<g>
	<path fill="#42AEFF" d="M6.326,0.376c0.001,0,0.096-0.041,0.123-0.049C6.487,0.314,6.562,0.3,6.599,0.299
		c0.057-0.001,0.187,0.015,0.244,0.034c0.023,0.008,0.085,0.033,0.111,0.048c0.026,0.015,0.106,0.07,0.114,0.078
		c0.007,0.007,0.02,0.028,0.023,0.032C7.095,0.495,7.129,0.525,7.16,0.567c0.029,0.042,0.047,0.084,0.047,0.084
		C7.209,0.655,7.225,0.672,7.23,0.683c0.002,0.005,0.022,0.078,0.033,0.123c0.008,0.036,0.009,0.094,0.01,0.107
		c0.004,0.05-0.02,0.197-0.023,0.253C7.249,1.191,7.228,1.305,7.214,1.431C7.21,1.469,7.2,1.558,7.199,1.581
		C7.196,1.621,7.181,1.679,7.171,1.81c-0.003,0.042-0.022,0.144-0.03,0.255c-0.009,0.124-0.025,0.222-0.029,0.25
		C7.11,2.334,7.093,2.543,7.087,2.626c-0.006,0.063-0.021,0.146-0.031,0.25C7.043,3.039,7.01,3.418,7,3.471
		C6.989,3.523,6.975,3.558,6.956,3.596C6.922,3.662,6.855,3.752,6.811,3.794c-0.023,0.021-0.105,0.082-0.11,0.085
		c-0.009,0.005-0.16,0.065-0.199,0.07C6.405,3.96,6.313,3.963,6.243,3.946C6.198,3.935,6.153,3.92,6.115,3.902
		C6.087,3.888,6.032,3.86,6.005,3.839c-0.04-0.032-0.142-0.141-0.18-0.205c-0.036-0.06-0.059-0.146-0.072-0.232
		C5.746,3.353,5.756,3.203,5.761,3.129c0.004-0.043,0.011-0.122,0.014-0.156c0.005-0.051,0.019-0.096,0.018-0.098
		C5.79,2.865,5.786,2.854,5.791,2.838c0.008-0.025,0.04-0.418,0.063-0.585C5.858,2.202,5.871,2.044,5.875,1.97
		C5.88,1.918,5.888,1.89,5.894,1.867C5.895,1.86,5.94,1.391,5.952,1.338c0.005-0.026,0.011-0.096,0.013-0.13
		C5.967,1.173,5.982,1.104,5.984,1.09c0.002-0.017,0.005-0.083,0.013-0.108C6,0.973,6.017,0.81,6.035,0.755
		c0.01-0.03,0.04-0.101,0.053-0.127c0.018-0.036,0.063-0.097,0.095-0.129c0.017-0.018,0.083-0.08,0.112-0.096
		C6.3,0.399,6.32,0.381,6.326,0.376z"/>
	<path fill="#42AEFF" d="M1.383,3.654C1.392,3.644,1.564,3.593,1.591,3.59c0.026-0.002,0.113-0.003,0.131-0.002
		C1.761,3.589,1.83,3.599,1.863,3.61C1.92,3.629,2.081,3.723,2.097,3.737c0.007,0.006,0.068,0.075,0.07,0.076
		c0.006,0.003,0.027,0.002,0.041,0.008C2.271,3.846,2.69,3.961,2.77,3.977C2.917,4.01,3.29,4.093,3.361,4.104
		C3.419,4.114,3.55,4.138,3.607,4.166c0.031,0.014,0.09,0.048,0.12,0.066c0.03,0.019,0.068,0.053,0.092,0.082
		c0.019,0.023,0.057,0.075,0.075,0.1c0.014,0.021,0.026,0.054,0.038,0.068c0.013,0.015,0.041,0.111,0.052,0.202
		c0.003,0.03-0.001,0.07,0.002,0.087c0.004,0.02-0.012,0.112-0.04,0.199C3.935,5.007,3.915,5.044,3.886,5.085
		C3.847,5.139,3.771,5.223,3.732,5.254C3.704,5.276,3.655,5.306,3.624,5.319c-0.016,0.006-0.088,0.033-0.103,0.04
		C3.518,5.361,3.408,5.378,3.324,5.376c-0.064-0.002-0.19-0.027-0.252-0.04C2.908,5.301,2.595,5.234,2.445,5.202
		C2.32,5.172,2.012,5.09,1.912,5.061C1.84,5.038,1.693,4.984,1.653,4.968C1.587,4.94,1.471,4.88,1.409,4.838
		C1.371,4.813,1.333,4.785,1.312,4.764c-0.015-0.015-0.037-0.046-0.05-0.057C1.244,4.692,1.198,4.633,1.172,4.6
		C1.136,4.551,1.119,4.511,1.119,4.511C1.117,4.507,1.082,4.455,1.075,4.426c-0.012-0.048-0.03-0.174-0.027-0.201
		C1.05,4.206,1.043,4.171,1.049,4.151c0.008-0.028,0.019-0.098,0.023-0.115c0.013-0.048,0.103-0.204,0.131-0.238
		C1.245,3.75,1.345,3.679,1.36,3.673C1.376,3.667,1.38,3.657,1.383,3.654z"/>
	<path fill="#42AEFF" d="M10.129,2.319c0.006-0.007,0.145-0.04,0.168-0.043c0.051-0.006,0.072-0.007,0.102-0.003
		c0.008,0.001,0.092,0.008,0.119,0.013c0.059,0.013,0.211,0.077,0.24,0.105c0.01,0.01,0.051,0.032,0.072,0.055
		c0.033,0.035,0.076,0.087,0.096,0.12c0.01,0.018,0.051,0.095,0.053,0.101c0.006,0.011,0.023,0.084,0.033,0.122
		c0.012,0.056,0.016,0.148,0.008,0.172s-0.01,0.065-0.018,0.092c-0.01,0.039-0.027,0.092-0.035,0.109
		c-0.018,0.041-0.236,0.367-0.309,0.478c-0.086,0.123-0.313,0.455-0.326,0.471c-0.014,0.015-0.258,0.346-0.363,0.487
		C9.91,4.678,9.859,4.733,9.836,4.772C9.83,4.78,9.709,4.927,9.699,4.941C9.607,5.054,9.445,5.277,9.376,5.323
		C9.359,5.334,9.33,5.371,9.283,5.396C9.28,5.397,9.252,5.408,9.248,5.41C9.244,5.413,9.225,5.429,9.216,5.433
		C9.19,5.445,9.04,5.479,8.973,5.479c-0.034,0-0.086-0.002-0.111-0.007c-0.02-0.004-0.108-0.034-0.117-0.035
		c-0.007-0.001-0.015,0-0.021-0.002C8.717,5.432,8.703,5.417,8.685,5.41C8.646,5.394,8.594,5.36,8.559,5.333
		C8.521,5.302,8.501,5.277,8.489,5.262C8.486,5.259,8.462,5.239,8.457,5.233C8.429,5.199,8.392,5.128,8.36,5.035
		C8.349,4.999,8.333,4.934,8.329,4.903c-0.005-0.059,0.013-0.194,0.03-0.249C8.37,4.62,8.4,4.557,8.417,4.528
		c0.021-0.036,0.045-0.068,0.075-0.1C8.507,4.413,8.531,4.37,8.55,4.35c0.07-0.078,0.128-0.158,0.162-0.194
		C8.728,4.138,8.754,4.093,8.766,4.08C8.8,4.045,9.099,3.65,9.123,3.621c0.024-0.029,0.233-0.326,0.318-0.449
		c0.088-0.128,0.264-0.39,0.354-0.525C9.852,2.564,9.898,2.5,9.945,2.454c0.07-0.063,0.117-0.093,0.158-0.112
		C10.121,2.334,10.127,2.323,10.129,2.319z"/>
	<path fill="#E0E0E0" d="M5.647,4.931c0.005-0.004,0.23-0.092,0.283-0.104c0.051-0.012,0.205-0.032,0.286-0.025
		c0.079,0.006,0.271,0.035,0.324,0.053c0.154,0.054,0.353,0.196,0.372,0.22c0.039,0.04,0.134,0.142,0.142,0.149
		c0.029,0.031,0.578,0.774,0.79,1.063C8.107,6.659,8.32,6.99,8.473,7.222c0.066,0.102,0.136,0.202,0.161,0.252
		c0.01,0.019-0.022,0.223-0.011,0.199c0.03-0.064,0.125-0.2,0.167-0.245c0.029-0.032,0.114-0.106,0.151-0.131
		c0.077-0.05,0.16-0.088,0.178-0.103c0.017-0.013,0.058-0.016,0.07-0.022C9.21,7.163,9.389,7.121,9.418,7.121
		c0.01,0,0.115,0.001,0.146,0.004c0.133,0.016,0.221,0.036,0.27,0.056c0.002,0.001,0.043,0.021,0.051,0.021
		c0.006,0,0.018-0.013,0.027-0.032c0.014-0.028,0.043-0.086,0.057-0.116c0.021-0.042,0.043-0.074,0.07-0.105
		c0.023-0.028,0.09-0.1,0.094-0.104c0.006-0.005,0.084-0.074,0.109-0.091c0.068-0.045,0.166-0.092,0.246-0.122
		c0.072-0.027,0.217-0.053,0.258-0.053c0.061,0,0.121-0.003,0.219,0.013c0.043,0.008,0.1,0.025,0.154,0.046
		c0.018,0.007,0.037,0.008,0.045,0.01c0.002,0,0.176,0.092,0.213,0.121c0.041,0.031,0.139,0.128,0.162,0.163
		c0.01,0.013,0.043,0.04,0.055,0.061c0.018,0.03,0.148,0.204,0.15,0.205c0.014,0.009,0.037,0.012,0.043,0.003
		c0.004-0.004,0.035-0.089,0.061-0.13c0.049-0.075,0.098-0.14,0.148-0.19c0.057-0.056,0.172-0.136,0.236-0.173
		c0.031-0.018,0.09-0.044,0.127-0.057c0.027-0.01,0.156-0.041,0.186-0.045c0.002,0,0.139-0.008,0.193-0.003
		c0.111,0.009,0.156,0.019,0.252,0.053c0.18,0.063,0.307,0.167,0.33,0.188c0.027,0.024,0.133,0.146,0.166,0.196
		c0.033,0.047,0.078,0.151,0.105,0.225c0.012,0.027,0.023,0.089,0.029,0.102c0.014,0.032,0.127,0.232,0.137,0.26
		c0.01,0.027,0.035,0.058,0.041,0.077c0.018,0.048,0.076,0.159,0.094,0.207C13.896,7.926,13.93,7.977,13.939,8
		c0.057,0.143,0.201,0.501,0.211,0.543c0.008,0.029,0.018,0.057,0.031,0.085c0.01,0.023,0.051,0.152,0.051,0.154
		c0,0.005,0.008,0.047,0.025,0.089c0.01,0.021,0.014,0.062,0.021,0.081c0.027,0.064,0.051,0.174,0.053,0.182
		c0.002,0.006,0.02,0.047,0.021,0.053c0.002,0.008,0.004,0.036,0.004,0.039c0.008,0.018,0.018,0.055,0.02,0.074
		c0,0,0.018,0.043,0.027,0.094c0.01,0.049,0.025,0.086,0.027,0.09c0.006,0.023,0.016,0.092,0.018,0.098
		c0.055,0.178,0.162,0.713,0.17,0.756c0.014,0.066,0.023,0.156,0.064,0.344c0.061,0.361,0.105,0.697,0.127,0.846
		c0.004,0.043,0.002,0.086,0.002,0.09c0,0.008,0.014,0.066,0.016,0.115c0.004,0.07,0.025,0.193,0.006,0.324
		c-0.008,0.051-0.049,0.205-0.07,0.26c-0.023,0.053-0.107,0.189-0.139,0.232c-0.041,0.049-0.131,0.121-0.146,0.139
		c-0.01,0.014-0.025,0.02-0.031,0.021c-0.006,0.006-0.018,0.02-0.037,0.031c-0.018,0.01-0.037,0.025-0.039,0.031
		c-0.002,0.008,0.01,0.025,0.023,0.037c0.045,0.037,0.066,0.066,0.07,0.07c0.002,0.004,0.035,0.033,0.066,0.074
		c0.023,0.033,0.059,0.084,0.066,0.104c0.004,0.014,0.027,0.041,0.039,0.072c0.016,0.035,0.041,0.102,0.043,0.123
		c0,0.014,0.016,0.045,0.02,0.074c0.004,0.031,0.012,0.1,0.016,0.131c0.006,0.041-0.01,0.246-0.012,0.252
		c-0.002,0.008-0.012,0.029-0.016,0.049c-0.014,0.057-0.029,0.109-0.045,0.145c-0.025,0.059-0.1,0.174-0.154,0.246
		c-0.043,0.055-0.115,0.119-0.188,0.17c-0.07,0.049-0.129,0.076-0.234,0.117c-0.025,0.012-0.057,0.037-0.076,0.043
		c-0.041,0.018-0.291,0.078-0.309,0.092c-0.021,0.018-0.043,0.029-0.08,0.043c-0.027,0.01-0.074,0.029-0.09,0.041
		c-0.016,0.014-0.066,0.033-0.09,0.041c-0.029,0.01-0.059,0.033-0.068,0.037c0,0.002-0.066,0.025-0.094,0.039
		c-0.027,0.016-0.082,0.043-0.107,0.053c-0.043,0.016-0.066,0.035-0.074,0.039c-0.006,0.004-0.1,0.039-0.107,0.043
		c-0.014,0.012-0.037,0.027-0.094,0.049c-0.055,0.021-0.078,0.037-0.094,0.047c-0.004,0.002-0.084,0.035-0.119,0.047
		c-0.021,0.01-0.072,0.041-0.096,0.051c-0.033,0.014-0.113,0.045-0.119,0.047c-0.006,0.004-0.029,0.021-0.031,0.023
		c-0.008,0.004-0.754,0.303-0.939,0.377c-0.016,0.006-0.053,0.01-0.078,0.02c-0.033,0.014-0.113,0.047-0.121,0.049
		c-0.016,0.006-0.049,0.012-0.055,0.014c-0.008,0-0.066,0.025-0.102,0.035c-0.023,0.006-0.109,0.025-0.135,0.029
		c-0.031,0.006-0.084,0.002-0.088,0.002c-0.006,0-0.035,0.006-0.039,0.006s-0.172-0.006-0.227-0.004
		c-0.021,0.002-0.072-0.014-0.086-0.014c-0.025-0.002-0.178-0.039-0.244-0.064c-0.035-0.016-0.209-0.104-0.236-0.125
		c-0.018-0.014-0.156-0.139-0.182-0.174c-0.02-0.025-0.059-0.078-0.08-0.107c-0.016-0.023-0.074-0.15-0.08-0.156
		c-0.01-0.016-0.166-0.1-0.219-0.148c-0.008-0.006-0.074-0.07-0.098-0.094c-0.025-0.023-0.058-0.066-0.084-0.105
		c-0.03-0.045-0.061-0.098-0.066-0.105c-0.01-0.012-0.152-0.158-0.174-0.176c-0.022-0.02-0.073-0.053-0.092-0.07
		c-0.035-0.033-0.152-0.119-0.215-0.164c-0.147-0.102-0.368-0.24-0.494-0.314c-0.123-0.068-0.377-0.201-0.51-0.27
		c-0.137-0.068-0.395-0.189-0.521-0.246c-0.133-0.057-0.402-0.168-0.54-0.221c-0.137-0.051-0.408-0.145-0.542-0.191
		c-0.145-0.047-0.348-0.109-0.405-0.127c-0.026-0.008-0.083-0.025-0.119-0.047c-0.068-0.037-0.231-0.131-0.269-0.158
		c-0.048-0.033-0.153-0.139-0.192-0.189c-0.024-0.033-0.125-0.207-0.136-0.232c-0.005-0.012-0.01-0.057-0.017-0.072
		c-0.008-0.02-0.022-0.076-0.029-0.109C5,11.984,4.981,11.832,5.001,11.713c0.012-0.066,0.053-0.205,0.078-0.268
		c0.024-0.059,0.117-0.195,0.144-0.227c0.035-0.043,0.148-0.143,0.208-0.184c0.044-0.027,0.144-0.078,0.167-0.088
		c0.064-0.023,0.129-0.043,0.157-0.047c0.032-0.004,0.101-0.012,0.131-0.016c0.041-0.006,0.224,0.008,0.251,0.012
		c0.036,0.006,0.112,0.027,0.122,0.031c0.034,0.012,0.219,0.102,0.27,0.117c0.067,0.018,0.42,0.137,0.568,0.188
		c0.178,0.063,0.447,0.17,0.477,0.184c0.015,0.008,0.035,0.008,0.042,0.01c0.004,0,0.033,0.021,0.041,0.023
		c0.006,0.004,0.048,0.014,0.096,0.033c0.149,0.064,0.396,0.17,0.397,0.172c0.006,0.004,0.028,0.021,0.041,0.023
		c0.007,0.002,0.015,0,0.021,0.002c0.006,0.004,0.019,0.018,0.04,0.027c0.077,0.035,0.258,0.115,0.265,0.119
		c0.001,0,0.032,0.021,0.041,0.023c0.011,0.006,0.038,0.008,0.042,0.004c0.01-0.008,0.069,0.117,0.066,0.113
		c-0.013-0.02-0.245-0.484-0.256-0.51c-0.012-0.016,0.167,0.346,0.154,0.314c-0.012-0.018-0.038-0.066-0.05-0.096
		c-0.005-0.01-0.024-0.033-0.026-0.039c-0.003-0.002-0.067-0.137-0.102-0.193c-0.032-0.063-0.076-0.145-0.093-0.174
		c-0.017-0.039-0.083-0.16-0.093-0.174c-0.016-0.039-0.227-0.42-0.256-0.459c-0.004-0.008-0.094-0.174-0.102-0.195
		c-0.025-0.037-0.068-0.113-0.084-0.152c-0.014-0.018-0.035-0.061-0.047-0.074c-0.015-0.018-0.072-0.139-0.086-0.158
		c-0.022-0.025-0.062-0.105-0.063-0.111c-0.003-0.006-0.12-0.236-0.13-0.258C7.43,9.68,7.421,9.656,7.419,9.652
		C7.418,9.648,7.334,9.52,7.328,9.502c-0.004-0.01-0.316-0.484-0.347-0.523C6.971,8.966,6.955,8.922,6.942,8.907
		C6.911,8.869,6.601,8.363,6.478,8.178C6.373,8.024,6.199,7.771,6.112,7.641C6.016,7.507,5.872,7.302,5.85,7.278
		C5.847,7.275,5.568,6.894,5.48,6.776C5.461,6.75,5.428,6.722,5.413,6.697c-0.02-0.034-0.084-0.102-0.084-0.102
		C5.32,6.572,5.273,6.521,5.26,6.497c-0.032-0.056-0.106-0.205-0.121-0.25C5.117,6.183,5.085,5.99,5.089,5.96
		C5.091,5.94,5.084,5.899,5.086,5.866c0.003-0.043,0.011-0.139,0.015-0.164C5.106,5.66,5.185,5.44,5.195,5.415
		c0.021-0.046,0.166-0.249,0.17-0.253C5.399,5.125,5.526,5.015,5.593,4.97C5.608,4.959,5.626,4.955,5.632,4.95
		C5.639,4.945,5.642,4.937,5.647,4.931z"/>
	<path fill="#42AEFF" d="M1.4,7.341c0.011-0.009,0.172-0.065,0.227-0.075c0.04-0.006,0.113-0.002,0.191-0.01
		c0.011-0.002,0.77-0.12,1.019-0.159C3.083,7.06,3.608,6.976,3.888,6.932C3.966,6.918,4.141,6.89,4.175,6.889
		C4.197,6.888,4.252,6.89,4.28,6.893C4.315,6.897,4.375,6.915,4.415,6.93C4.449,6.944,4.52,6.977,4.541,6.988
		C4.595,7.019,4.69,7.115,4.723,7.162c0.014,0.02,0.056,0.091,0.061,0.1C4.802,7.297,4.808,7.342,4.81,7.353
		c0.002,0.009,0.02,0.068,0.023,0.104C4.838,7.5,4.836,7.565,4.831,7.604C4.825,7.644,4.807,7.72,4.795,7.75
		c-0.031,0.079-0.096,0.158-0.1,0.163C4.689,7.921,4.673,7.952,4.671,7.955C4.666,7.958,4.649,7.963,4.64,7.976
		C4.625,7.994,4.563,8.052,4.514,8.079c-0.007,0.004-0.073,0.029-0.09,0.038c-0.029,0.015-0.178,0.042-0.25,0.055
		C3.929,8.21,3.292,8.31,3.135,8.333C2.83,8.386,2.358,8.454,2.109,8.494C2.03,8.504,1.847,8.528,1.823,8.529
		C1.803,8.53,1.6,8.524,1.582,8.519C1.503,8.497,1.436,8.465,1.338,8.407C1.311,8.39,1.277,8.356,1.271,8.35
		C1.245,8.323,1.213,8.284,1.193,8.258c-0.04-0.054-0.059-0.118-0.061-0.12C1.129,8.135,1.122,8.137,1.12,8.132
		C1.117,8.126,1.121,8.106,1.116,8.095c-0.004-0.01-0.013-0.028-0.017-0.038C1.094,8.045,1.096,8.026,1.095,8.019
		c0-0.006-0.008-0.021-0.009-0.043c-0.003-0.053-0.004-0.118,0-0.154c0.003-0.025,0.017-0.1,0.028-0.125
		C1.116,7.69,1.144,7.63,1.154,7.608c0.018-0.037,0.045-0.081,0.074-0.113C1.252,7.467,1.33,7.392,1.335,7.387
		c0.016-0.011,0.045-0.026,0.05-0.03C1.391,7.353,1.394,7.346,1.4,7.341z"/>
</g>
</svg>
