<?xml version="1.0" encoding="utf-8"?>
<!-- Generator: Adobe Illustrator 16.0.5, SVG Export Plug-In . SVG Version: 6.00 Build 0)  -->
<!DOCTYPE svg PUBLIC "-//W3C//DTD SVG 1.1//EN" "http://www.w3.org/Graphics/SVG/1.1/DTD/svg11.dtd">
<svg version="1.1" id="Layer_1" xmlns="http://www.w3.org/2000/svg" xmlns:xlink="http://www.w3.org/1999/xlink" x="0px" y="0px"
	 width="16px" height="16px" viewBox="0 0 16 16" enable-background="new 0 0 16 16" xml:space="preserve">
<g>
	<g>
		<path fill="#42AEFF" d="M22.272,5.971c0.837,0.012,1.678-0.298,2.316-0.938c0.597-0.598,0.901-1.372,0.931-2.153
			c-0.719,0.347-1.396,0.811-1.994,1.408C23.016,4.799,22.6,5.368,22.272,5.971z"/>
	</g>
</g>
<g>
	<g>
		<path fill="#E0E0E0" d="M12.968,8.71c-0.577,0.664-1.417,1.091-2.366,1.091c-1.738,0-3.148-1.408-3.147-3.147
			c0-0.012,0.003-0.022,0.003-0.034c-3.56,0.267-6.368,3.211-6.42,6.825l13.894,0.001C14.904,11.604,14.159,9.939,12.968,8.71z"/>
	</g>
	<g>
		<path fill="none" stroke="#231F20" stroke-width="0.8993" stroke-miterlimit="10" d="M12.968,8.71
			c-0.577,0.664-1.417,1.091-2.366,1.091c-1.738,0-3.148-1.408-3.147-3.147c0-0.012,0.003-0.022,0.003-0.034
			c-3.56,0.267-6.368,3.211-6.42,6.825l13.894,0.001C14.904,11.604,14.159,9.939,12.968,8.71z"/>
	</g>
</g>
<g>
	<g>
		<path fill="none" stroke="#42AEFF" stroke-width="0.75" stroke-linecap="round" stroke-miterlimit="10" d="M1.095,6.69
			c0-0.163,0.006-0.325,0.02-0.484"/>
		
			<path fill="none" stroke="#42AEFF" stroke-width="0.75" stroke-linecap="round" stroke-miterlimit="10" stroke-dasharray="0.9567,0.9567" d="
			M1.268,5.261C1.938,2.531,4.484,0.5,7.524,0.5c2.976,0,5.478,1.945,6.21,4.587"/>
		<path fill="none" stroke="#42AEFF" stroke-width="0.75" stroke-linecap="round" stroke-miterlimit="10" d="M13.845,5.557
			c0.03,0.159,0.055,0.321,0.072,0.484"/>
		<g>
			<polygon fill="#42AEFF" points="11.037,4.573 11.39,4.086 13.782,5.826 15.343,3.312 15.853,3.629 13.951,6.69 			"/>
		</g>
	</g>
</g>
</svg>
